<svg width="88" height="80" viewBox="0 0 88 80" fill="none" xmlns="http://www.w3.org/2000/svg">
<path d="M2 22.8943L42.8744 2.26781C43.224 2.09168 43.6093 2 44 2C44.3907 2 44.776 2.09168 45.1256 2.26781L86 22.8943M77.6 35.611V69.5222C77.6 71.7706 76.715 73.927 75.1397 75.5169C73.5644 77.1068 71.4278 78 69.2 78H18.8C16.5722 78 14.4356 77.1068 12.8603 75.5169C11.285 73.927 10.4 71.7706 10.4 69.5222V35.611" stroke="#921A1A" stroke-opacity="0.94" stroke-width="4" stroke-linecap="round" stroke-linejoin="round"/>
<path d="M30.1 40V44.18C30.1 44.5533 30.0267 44.84 29.88 45.04C29.7333 45.2267 29.5 45.4067 29.18 45.58C28.82 45.78 28.2933 45.9533 27.6 46.1C26.92 46.26 26.24 46.34 25.56 46.34C24.28 46.34 23.1267 46.12 22.1 45.68C21.0867 45.2267 20.28 44.5333 19.68 43.6C19.08 42.6533 18.78 41.44 18.78 39.96C18.78 38.5467 19.08 37.3667 19.68 36.42C20.2933 35.46 21.1067 34.74 22.12 34.26C23.1467 33.7667 24.2867 33.52 25.54 33.52C26.3533 33.52 27.0667 33.6067 27.68 33.78C28.2933 33.9533 28.76 34.1933 29.08 34.5C29.4133 34.8067 29.58 35.16 29.58 35.56C29.58 35.8667 29.5 36.14 29.34 36.38C29.1933 36.6067 29.0133 36.7867 28.8 36.92C28.4533 36.7067 28.0267 36.5067 27.52 36.32C27.0267 36.12 26.44 36.02 25.76 36.02C25.0267 36.02 24.3667 36.18 23.78 36.5C23.2067 36.82 22.76 37.2733 22.44 37.86C22.12 38.4333 21.96 39.1267 21.96 39.94C21.96 40.82 22.1133 41.5533 22.42 42.14C22.74 42.7133 23.1733 43.14 23.72 43.42C24.28 43.7 24.9067 43.84 25.6 43.84C25.9333 43.84 26.2333 43.8133 26.5 43.76C26.7667 43.6933 26.9733 43.62 27.12 43.54V41.26H24.8C24.72 41.1267 24.6467 40.9533 24.58 40.74C24.5133 40.5267 24.48 40.3 24.48 40.06C24.48 39.6333 24.58 39.3267 24.78 39.14C24.98 38.94 25.2333 38.84 25.54 38.84H28.92C29.28 38.84 29.5667 38.9467 29.78 39.16C29.9933 39.36 30.1 39.64 30.1 40ZM32.5836 37.5H35.6836V45.98C35.5503 46.02 35.3503 46.0533 35.0836 46.08C34.8169 46.12 34.5369 46.14 34.2436 46.14C33.6436 46.14 33.2169 46.0333 32.9636 45.82C32.7103 45.5933 32.5836 45.2133 32.5836 44.68V37.5ZM35.6836 41.42H32.5836V33.84C32.7303 33.8133 32.9369 33.78 33.2036 33.74C33.4836 33.7 33.7569 33.68 34.0236 33.68C34.6103 33.68 35.0303 33.78 35.2836 33.98C35.5503 34.18 35.6836 34.5667 35.6836 35.14V41.42ZM40.0436 37.5H43.1436V45.98C43.0103 46.02 42.8103 46.0533 42.5436 46.08C42.2769 46.12 41.9969 46.14 41.7036 46.14C41.1036 46.14 40.6769 46.0333 40.4236 45.82C40.1703 45.5933 40.0436 45.2133 40.0436 44.68V37.5ZM43.1436 41.42H40.0436V33.84C40.1769 33.8133 40.3836 33.78 40.6636 33.74C40.9436 33.7 41.2169 33.68 41.4836 33.68C42.0703 33.68 42.4903 33.7867 42.7436 34C43.0103 34.2133 43.1436 34.6067 43.1436 35.18V41.42ZM41.8036 41.14H33.9836V38.68H41.8036V41.14ZM50.843 36.46H50.743C50.5963 36.8733 50.4363 37.3333 50.263 37.84C50.0896 38.3467 49.9096 38.88 49.723 39.44C49.5363 40 49.363 40.56 49.203 41.12L48.823 42.96C48.743 43.2267 48.663 43.5 48.583 43.78C48.5163 44.0467 48.443 44.3133 48.363 44.58C48.2963 44.8333 48.2296 45.08 48.163 45.32C48.0963 45.56 48.0363 45.7867 47.983 46C47.823 46.04 47.643 46.08 47.443 46.12C47.2563 46.1733 47.0363 46.2 46.783 46.2C46.2096 46.2 45.7763 46.1 45.483 45.9C45.1896 45.6867 45.043 45.3933 45.043 45.02C45.043 44.8467 45.063 44.6733 45.103 44.5C45.1563 44.3267 45.2163 44.1267 45.283 43.9C45.403 43.46 45.5696 42.9067 45.783 42.24C45.9963 41.5733 46.2363 40.8533 46.503 40.08C46.7696 39.2933 47.0363 38.52 47.303 37.76C47.583 37 47.8363 36.3067 48.063 35.68C48.2896 35.04 48.4696 34.54 48.603 34.18C48.8163 34.06 49.123 33.9533 49.523 33.86C49.9363 33.7533 50.3496 33.7 50.763 33.7C51.3363 33.7 51.8496 33.7867 52.303 33.96C52.7696 34.12 53.063 34.3867 53.183 34.76C53.4496 35.4667 53.7296 36.2867 54.023 37.22C54.3163 38.14 54.6096 39.1067 54.903 40.12C55.2096 41.12 55.503 42.1 55.783 43.06C56.0763 44.0067 56.3296 44.86 56.543 45.62C56.3963 45.78 56.1763 45.9133 55.883 46.02C55.603 46.14 55.2696 46.2 54.883 46.2C54.323 46.2 53.9296 46.1 53.703 45.9C53.4763 45.7 53.303 45.3933 53.183 44.98L52.563 42.78L52.203 41.04C52.043 40.4533 51.8763 39.8867 51.703 39.34C51.543 38.78 51.3896 38.2533 51.243 37.76C51.0963 37.2667 50.963 36.8333 50.843 36.46ZM47.483 43.32L48.683 40.92H53.323L53.723 43.32H47.483ZM61.3858 39.56H62.6658C63.3191 39.56 63.8458 39.4133 64.2458 39.12C64.6591 38.8133 64.8658 38.3733 64.8658 37.8C64.8658 37.2267 64.6724 36.7933 64.2858 36.5C63.8991 36.1933 63.3124 36.04 62.5258 36.04C62.3124 36.04 62.1124 36.0533 61.9258 36.08C61.7524 36.0933 61.5724 36.1133 61.3858 36.14V39.56ZM62.9458 41.94H58.3258V34.96C58.3258 34.6933 58.3991 34.4867 58.5458 34.34C58.7058 34.1933 58.9058 34.08 59.1458 34C59.5858 33.84 60.0991 33.7267 60.6858 33.66C61.2858 33.5933 61.9058 33.56 62.5458 33.56C64.3591 33.56 65.7191 33.94 66.6258 34.7C67.5324 35.46 67.9858 36.48 67.9858 37.76C67.9858 38.5733 67.7658 39.2933 67.3258 39.92C66.8858 40.5467 66.2858 41.04 65.5258 41.4C64.7791 41.76 63.9191 41.94 62.9458 41.94ZM62.3858 41.2L65.1458 40.58C65.4524 40.9933 65.7658 41.4067 66.0858 41.82C66.4191 42.2333 66.7324 42.6333 67.0258 43.02C67.3191 43.4067 67.5858 43.76 67.8258 44.08C68.0658 44.4 68.2591 44.6733 68.4058 44.9C68.2858 45.3 68.0658 45.6133 67.7458 45.84C67.4391 46.0667 67.0924 46.18 66.7058 46.18C66.1991 46.18 65.8124 46.0733 65.5458 45.86C65.2791 45.6333 65.0324 45.3333 64.8058 44.96L62.3858 41.2ZM58.3258 40.78H61.4258V45.98C61.2924 46.02 61.0924 46.0533 60.8258 46.08C60.5591 46.12 60.2791 46.14 59.9858 46.14C59.3858 46.14 58.9591 46.0333 58.7058 45.82C58.4524 45.5933 58.3258 45.2133 58.3258 44.68V40.78Z" fill="#921A1A"/>
<path d="M27.3 59.94C27.3 59.06 27.1533 58.34 26.86 57.78C26.5667 57.2067 26.1533 56.78 25.62 56.5C25.1 56.2067 24.5 56.06 23.82 56.06C23.58 56.06 23.3467 56.0733 23.12 56.1C22.9067 56.1133 22.6933 56.1333 22.48 56.16V63.68C22.6667 63.7067 22.8867 63.7333 23.14 63.76C23.3933 63.7867 23.6267 63.8 23.84 63.8C24.8933 63.8 25.7333 63.48 26.36 62.84C26.9867 62.1867 27.3 61.22 27.3 59.94ZM30.48 59.88C30.48 61.32 30.2 62.5133 29.64 63.46C29.0933 64.4067 28.32 65.12 27.32 65.6C26.3333 66.0667 25.1733 66.3 23.84 66.3C23.3867 66.3 22.84 66.2667 22.2 66.2C21.56 66.1467 20.9733 66.0267 20.44 65.84C19.7467 65.5867 19.4 65.14 19.4 64.5V54.96C19.4 54.6933 19.4733 54.4867 19.62 54.34C19.78 54.1933 19.98 54.0733 20.22 53.98C20.7533 53.8067 21.3267 53.6933 21.94 53.64C22.5667 53.5867 23.1333 53.56 23.64 53.56C25 53.56 26.1933 53.7933 27.22 54.26C28.2467 54.7133 29.0467 55.4067 29.62 56.34C30.1933 57.2733 30.48 58.4533 30.48 59.88ZM32.6617 57.48H35.6817V65.88C35.5617 65.9067 35.3751 65.94 35.1217 65.98C34.8684 66.02 34.6017 66.04 34.3217 66.04C33.8151 66.04 33.4084 65.8933 33.1017 65.6C32.8084 65.3067 32.6617 64.9067 32.6617 64.4V57.48ZM35.6817 62.4H32.6617V55.52C32.6617 55.0133 32.8084 54.6133 33.1017 54.32C33.4084 54.0267 33.8151 53.88 34.3217 53.88C34.6017 53.88 34.8684 53.9 35.1217 53.94C35.3751 53.98 35.5617 54.0133 35.6817 54.04V62.4ZM34.3217 61.04V58.6H40.3417C40.4351 58.7333 40.5084 58.9067 40.5617 59.12C40.6284 59.32 40.6617 59.54 40.6617 59.78C40.6617 60.22 40.5684 60.54 40.3817 60.74C40.1951 60.94 39.9351 61.04 39.6017 61.04H34.3217ZM34.3217 66.04V63.58H41.0017C41.0817 63.7133 41.1551 63.8867 41.2217 64.1C41.2884 64.3133 41.3217 64.5467 41.3217 64.8C41.3217 65.2267 41.2284 65.54 41.0417 65.74C40.8551 65.94 40.5951 66.04 40.2617 66.04H34.3217ZM34.3217 56.32V53.88H40.9217C41.0017 54 41.0751 54.1667 41.1417 54.38C41.2084 54.58 41.2417 54.8 41.2417 55.04C41.2417 55.48 41.1484 55.8067 40.9617 56.02C40.7751 56.22 40.5084 56.32 40.1617 56.32H34.3217ZM46.6006 59.56H47.8806C48.534 59.56 49.0606 59.4133 49.4606 59.12C49.874 58.8133 50.0806 58.3733 50.0806 57.8C50.0806 57.2267 49.8873 56.7933 49.5006 56.5C49.114 56.1933 48.5273 56.04 47.7406 56.04C47.5273 56.04 47.3273 56.0533 47.1406 56.08C46.9673 56.0933 46.7873 56.1133 46.6006 56.14V59.56ZM48.1606 61.94H43.5406V54.96C43.5406 54.6933 43.614 54.4867 43.7606 54.34C43.9206 54.1933 44.1206 54.08 44.3606 54C44.8006 53.84 45.314 53.7267 45.9006 53.66C46.5006 53.5933 47.1206 53.56 47.7606 53.56C49.574 53.56 50.934 53.94 51.8406 54.7C52.7473 55.46 53.2006 56.48 53.2006 57.76C53.2006 58.5733 52.9806 59.2933 52.5406 59.92C52.1006 60.5467 51.5006 61.04 50.7406 61.4C49.994 61.76 49.134 61.94 48.1606 61.94ZM47.6006 61.2L50.3606 60.58C50.6673 60.9933 50.9806 61.4067 51.3006 61.82C51.634 62.2333 51.9473 62.6333 52.2406 63.02C52.534 63.4067 52.8006 63.76 53.0406 64.08C53.2806 64.4 53.474 64.6733 53.6206 64.9C53.5006 65.3 53.2806 65.6133 52.9606 65.84C52.654 66.0667 52.3073 66.18 51.9206 66.18C51.414 66.18 51.0273 66.0733 50.7606 65.86C50.494 65.6333 50.2473 65.3333 50.0206 64.96L47.6006 61.2ZM43.5406 60.78H46.6406V65.98C46.5073 66.02 46.3073 66.0533 46.0406 66.08C45.774 66.12 45.494 66.14 45.2006 66.14C44.6006 66.14 44.174 66.0333 43.9206 65.82C43.6673 65.5933 43.5406 65.2133 43.5406 64.68V60.78ZM60.7063 56.46H60.6063C60.4596 56.8733 60.2996 57.3333 60.1263 57.84C59.9529 58.3467 59.7729 58.88 59.5863 59.44C59.3996 60 59.2263 60.56 59.0663 61.12L58.6863 62.96C58.6063 63.2267 58.5263 63.5 58.4463 63.78C58.3796 64.0467 58.3063 64.3133 58.2263 64.58C58.1596 64.8333 58.0929 65.08 58.0263 65.32C57.9596 65.56 57.8996 65.7867 57.8463 66C57.6863 66.04 57.5063 66.08 57.3063 66.12C57.1196 66.1733 56.8996 66.2 56.6463 66.2C56.0729 66.2 55.6396 66.1 55.3463 65.9C55.0529 65.6867 54.9063 65.3933 54.9063 65.02C54.9063 64.8467 54.9263 64.6733 54.9663 64.5C55.0196 64.3267 55.0796 64.1267 55.1463 63.9C55.2663 63.46 55.4329 62.9067 55.6463 62.24C55.8596 61.5733 56.0996 60.8533 56.3663 60.08C56.6329 59.2933 56.8996 58.52 57.1663 57.76C57.4463 57 57.6996 56.3067 57.9263 55.68C58.1529 55.04 58.3329 54.54 58.4663 54.18C58.6796 54.06 58.9863 53.9533 59.3863 53.86C59.7996 53.7533 60.2129 53.7 60.6263 53.7C61.1996 53.7 61.7129 53.7867 62.1663 53.96C62.6329 54.12 62.9263 54.3867 63.0463 54.76C63.3129 55.4667 63.5929 56.2867 63.8863 57.22C64.1796 58.14 64.4729 59.1067 64.7663 60.12C65.0729 61.12 65.3663 62.1 65.6463 63.06C65.9396 64.0067 66.1929 64.86 66.4063 65.62C66.2596 65.78 66.0396 65.9133 65.7463 66.02C65.4663 66.14 65.1329 66.2 64.7463 66.2C64.1863 66.2 63.7929 66.1 63.5663 65.9C63.3396 65.7 63.1663 65.3933 63.0463 64.98L62.4263 62.78L62.0663 61.04C61.9063 60.4533 61.7396 59.8867 61.5663 59.34C61.4063 58.78 61.2529 58.2533 61.1063 57.76C60.9596 57.2667 60.8263 56.8333 60.7063 56.46ZM57.3462 63.32L58.5463 60.92H63.1863L63.5863 63.32H57.3462Z" fill="#921A1A"/>
</svg>
